<?xml version="1.0" encoding="UTF-8"?>
<svg width="286px" height="43px" viewBox="0 0 286 43" version="1.1" xmlns="http://www.w3.org/2000/svg" xmlns:xlink="http://www.w3.org/1999/xlink">
    <title>SA logo</title>
    
    <g id="SA-logo" stroke="none" stroke-width="1" fill="none" fill-rule="evenodd">
        <g id="White-logo">
            
                <g transform="translate(15.814000, 9.400000)">
                    <path d="M5.566,10.12 C8.184,10.472 9.02,11.264 9.02,12.76 L9.02,12.892 C9.02,14.322 7.964,15.312 6.116,15.312 L5.918,15.312 C4.07,15.312 2.948,14.256 2.948,11.814 L0,11.814 L0,12.034 C0,15.972 2.09,17.886 6.028,17.886 C9.856,17.886 12.034,15.994 12.034,12.782 L12.034,12.54 C12.034,9.526 10.252,8.184 6.512,7.678 C3.806,7.304 3.168,6.512 3.168,5.104 L3.168,4.972 C3.168,3.63 4.224,2.728 5.852,2.728 L6.05,2.728 C8.096,2.728 8.932,3.872 8.932,6.446 L11.88,6.446 L11.88,5.94 C11.88,2.068 10.098,0.154 6.028,0.154 C2.31,0.154 0.154,2.09 0.154,5.126 L0.154,5.346 C0.154,8.184 1.826,9.614 5.566,10.12 Z M17.996,5.94 L17.996,2.64 L15.136,2.64 L15.136,5.94 L13.354,5.94 L13.354,8.448 L15.136,8.448 L15.136,13.794 C15.136,16.808 16.808,17.886 19.206,17.886 C20.24,17.886 20.834,17.688 21.01,17.6 L21.01,15.224 C20.878,15.29 20.306,15.378 19.888,15.378 C18.7,15.378 17.996,15.048 17.996,13.486 L17.996,8.448 L21.23,8.448 L21.23,5.94 L17.996,5.94 Z M29.106,5.654 C27.676,5.654 26.62,6.38 25.96,7.348 L25.718,5.94 L23.188,5.94 L23.386,9.24 L23.386,17.6 L26.246,17.6 L26.246,9.68 C26.598,9.152 27.412,8.448 28.952,8.448 L29.436,8.448 L29.436,5.676 C29.37,5.676 29.238,5.654 29.106,5.654 Z M31.35,5.94 L31.35,13.904 C31.35,16.038 32.384,17.886 34.936,17.886 C36.784,17.886 37.994,17.116 38.72,16.06 L38.984,17.6 L41.514,17.6 L41.338,14.3 L41.338,5.94 L38.478,5.94 L38.478,14.058 C38.126,14.608 37.378,15.378 36.058,15.378 C34.738,15.378 34.188,14.586 34.188,13.464 L34.188,5.94 L31.35,5.94 Z M46.244,12.122 L46.244,11.418 C46.244,9.394 46.926,8.14 48.598,8.14 C50.006,8.14 50.666,9.02 50.666,10.384 L53.372,10.384 L53.372,9.9 C53.372,7.546 51.832,5.654 48.532,5.654 C44.946,5.654 43.384,8.074 43.384,11.418 L43.384,12.122 C43.384,15.444 44.946,17.886 48.532,17.886 C51.832,17.886 53.372,16.038 53.372,13.816 L53.372,13.354 L50.666,13.354 C50.666,14.498 50.05,15.378 48.598,15.378 C46.926,15.378 46.244,14.124 46.244,12.122 Z M59.026,5.94 L59.026,2.64 L56.166,2.64 L56.166,5.94 L54.384,5.94 L54.384,8.448 L56.166,8.448 L56.166,13.794 C56.166,16.808 57.838,17.886 60.236,17.886 C61.27,17.886 61.864,17.688 62.04,17.6 L62.04,15.224 C61.908,15.29 61.336,15.378 60.918,15.378 C59.73,15.378 59.026,15.048 59.026,13.486 L59.026,8.448 L62.26,8.448 L62.26,5.94 L59.026,5.94 Z M64.284,5.94 L64.284,13.904 C64.284,16.038 65.318,17.886 67.87,17.886 C69.718,17.886 70.928,17.116 71.654,16.06 L71.918,17.6 L74.448,17.6 L74.272,14.3 L74.272,5.94 L71.412,5.94 L71.412,14.058 C71.06,14.608 70.312,15.378 68.992,15.378 C67.672,15.378 67.122,14.586 67.122,13.464 L67.122,5.94 L64.284,5.94 Z M82.522,5.654 C81.092,5.654 80.036,6.38 79.376,7.348 L79.134,5.94 L76.604,5.94 L76.802,9.24 L76.802,17.6 L79.662,17.6 L79.662,9.68 C80.014,9.152 80.828,8.448 82.368,8.448 L82.852,8.448 L82.852,5.676 C82.786,5.676 82.654,5.654 82.522,5.654 Z M94.446,12.826 L86.746,12.826 C86.856,14.74 87.736,15.664 89.364,15.664 C90.926,15.664 91.74,14.74 91.74,13.86 L94.446,13.86 L94.446,13.948 C94.446,16.038 92.686,17.886 89.342,17.886 C85.58,17.886 83.886,15.378 83.886,12.056 L83.886,11.484 C83.886,8.162 85.624,5.654 89.232,5.654 C92.818,5.654 94.446,8.162 94.446,11.484 L94.446,12.826 Z M89.166,7.876 C87.626,7.876 86.856,8.866 86.746,10.714 L91.564,10.714 C91.476,8.866 90.728,7.876 89.166,7.876 Z M100.562,5.654 C101.992,5.654 102.982,6.226 103.642,7.018 L103.642,0 L106.502,0 L106.502,14.3 L106.678,17.6 L104.148,17.6 L103.906,16.148 C103.268,17.138 102.212,17.886 100.562,17.886 C97.372,17.886 96.184,15.444 96.184,12.122 L96.184,11.418 C96.184,8.074 97.372,5.654 100.562,5.654 Z M103.642,14.058 L103.642,9.482 C103.312,8.932 102.564,8.14 101.354,8.14 C99.726,8.14 99.044,9.372 99.044,11.418 L99.044,12.122 C99.044,14.168 99.726,15.378 101.354,15.378 C102.564,15.378 103.312,14.608 103.642,14.058 Z" id="Structured" fill="#FFFFFF"/>
                    <path d="M144.092,0.352 L148.162,0.352 L152.672,17.6 L149.504,17.6 L148.558,13.684 L143.718,13.684 L142.772,17.6 L139.582,17.6 L144.092,0.352 Z M146.138,3.718 L144.334,11.11 L147.92,11.11 L146.138,3.718 Z M157.182,0 L157.182,7.018 C157.842,6.226 158.832,5.654 160.284,5.654 C163.474,5.654 164.64,8.074 164.64,11.418 L164.64,12.122 C164.64,15.444 163.474,17.886 160.284,17.886 C158.612,17.886 157.556,17.138 156.918,16.148 L156.676,17.6 L154.146,17.6 L154.322,14.3 L154.322,0 L157.182,0 Z M157.182,9.482 L157.182,14.058 C157.534,14.608 158.26,15.378 159.47,15.378 C161.098,15.378 161.78,14.168 161.78,12.122 L161.78,11.418 C161.78,9.372 161.098,8.14 159.47,8.14 C158.26,8.14 157.534,8.932 157.182,9.482 Z M171.24,15.664 C169.7,15.664 169.216,14.894 169.216,13.948 L166.378,13.948 L166.378,14.036 C166.378,16.148 167.874,17.886 171.24,17.886 C174.452,17.886 176.102,16.412 176.102,14.102 L176.102,13.948 C176.102,11.594 174.408,10.912 171.482,10.67 C169.766,10.538 169.348,10.12 169.348,9.262 C169.348,8.404 170.03,7.876 171.24,7.876 C172.648,7.876 173.176,8.58 173.176,9.746 L175.97,9.746 L175.97,9.636 C175.97,7.216 174.584,5.654 171.24,5.654 C168.49,5.654 166.532,6.842 166.532,9.328 L166.532,9.504 C166.532,11.55 167.786,12.452 171.02,12.716 C172.67,12.848 173.242,13.2 173.242,14.212 C173.242,15.07 172.604,15.664 171.24,15.664 Z M181.91,5.94 L181.91,2.64 L179.05,2.64 L179.05,5.94 L177.268,5.94 L177.268,8.448 L179.05,8.448 L179.05,13.794 C179.05,16.808 180.722,17.886 183.12,17.886 C184.154,17.886 184.748,17.688 184.924,17.6 L184.924,15.224 C184.792,15.29 184.22,15.378 183.802,15.378 C182.614,15.378 181.91,15.048 181.91,13.486 L181.91,8.448 L185.144,8.448 L185.144,5.94 L181.91,5.94 Z M193.02,5.654 C191.59,5.654 190.534,6.38 189.874,7.348 L189.632,5.94 L187.102,5.94 L187.3,9.24 L187.3,17.6 L190.16,17.6 L190.16,9.68 C190.512,9.152 191.326,8.448 192.866,8.448 L193.35,8.448 L193.35,5.676 C193.284,5.676 193.152,5.654 193.02,5.654 Z M201.886,17.6 L201.666,16.258 C200.852,17.204 199.598,17.886 197.86,17.886 C195.396,17.886 194.34,16.324 194.34,14.454 L194.34,14.234 C194.34,11.704 196.144,10.912 198.41,10.582 L201.38,10.12 L201.38,10.076 C201.38,8.602 200.918,7.876 199.444,7.876 C197.86,7.876 197.508,8.778 197.508,9.79 L194.78,9.79 L194.78,9.592 C194.78,7.634 195.792,5.654 199.51,5.654 C203.14,5.654 204.24,7.348 204.24,10.076 L204.24,14.3 L204.416,17.6 L201.886,17.6 Z M198.85,15.532 C200.192,15.532 201.006,14.828 201.38,14.322 L201.38,11.858 L198.938,12.254 C197.728,12.452 197.2,13.024 197.2,13.926 L197.2,14.102 C197.2,14.828 197.684,15.532 198.85,15.532 Z M209.08,12.122 L209.08,11.418 C209.08,9.394 209.762,8.14 211.434,8.14 C212.842,8.14 213.502,9.02 213.502,10.384 L216.208,10.384 L216.208,9.9 C216.208,7.546 214.668,5.654 211.368,5.654 C207.782,5.654 206.22,8.074 206.22,11.418 L206.22,12.122 C206.22,15.444 207.782,17.886 211.368,17.886 C214.668,17.886 216.208,16.038 216.208,13.816 L216.208,13.354 L213.502,13.354 C213.502,14.498 212.886,15.378 211.434,15.378 C209.762,15.378 209.08,14.124 209.08,12.122 Z M221.862,5.94 L221.862,2.64 L219.002,2.64 L219.002,5.94 L217.22,5.94 L217.22,8.448 L219.002,8.448 L219.002,13.794 C219.002,16.808 220.674,17.886 223.072,17.886 C224.106,17.886 224.7,17.688 224.876,17.6 L224.876,15.224 C224.744,15.29 224.172,15.378 223.754,15.378 C222.566,15.378 221.862,15.048 221.862,13.486 L221.862,8.448 L225.096,8.448 L225.096,5.94 L221.862,5.94 Z M227.296,17.6 L230.156,17.6 L230.156,5.94 L227.296,5.94 L227.296,17.6 Z M230.288,0.814 L227.164,0.814 L227.164,3.916 L230.288,3.916 L230.288,0.814 Z M237.548,17.886 C233.896,17.886 232.268,15.444 232.268,12.122 L232.268,11.418 C232.268,8.074 233.896,5.654 237.548,5.654 C241.2,5.654 242.828,8.074 242.828,11.418 L242.828,12.122 C242.828,15.444 241.2,17.886 237.548,17.886 Z M237.548,15.378 C239.22,15.378 239.968,14.124 239.968,12.122 L239.968,11.418 C239.968,9.394 239.22,8.14 237.548,8.14 C235.876,8.14 235.128,9.394 235.128,11.418 L235.128,12.122 C235.128,14.124 235.876,15.378 237.548,15.378 Z M254.884,17.6 L254.884,9.614 C254.884,7.502 253.85,5.654 251.298,5.654 C249.45,5.654 248.24,6.424 247.514,7.48 L247.25,5.94 L244.72,5.94 L244.918,9.24 L244.918,17.6 L247.778,17.6 L247.778,9.482 C248.108,8.932 248.856,8.14 250.198,8.14 C251.496,8.14 252.046,8.954 252.046,10.076 L252.046,17.6 L254.884,17.6 Z" id="Abstraction" fill="#FFFFFF"/>
                </g>
           
            <polygon id="Fill-42" fill="#5EA2C5" points="135.881378 43 135 43 145.120648 0 146 0"/>
        </g>
    </g>
</svg>